<?xml version="1.0" standalone="no"?><!DOCTYPE svg PUBLIC "-//W3C//DTD SVG 1.1//EN" "http://www.w3.org/Graphics/SVG/1.1/DTD/svg11.dtd"><svg t="1605623083308" class="icon" viewBox="0 0 1024 1024" version="1.1" xmlns="http://www.w3.org/2000/svg" p-id="12353" xmlns:xlink="http://www.w3.org/1999/xlink" width="200" height="200"><defs><style type="text/css"></style></defs><path d="M534.613 490.987L262.293 143.04c-3.2-4.16-8.213-6.507-13.44-6.507H166.4c-7.147 0-11.093 8.214-6.72 13.76L442.773 512 159.68 873.707c-4.373 5.546-0.427 13.76 6.72 13.76h82.453c5.227 0 10.24-2.454 13.44-6.507l272.32-347.84c9.707-12.48 9.707-29.76 0-42.133z" p-id="12354"></path><path d="M858.88 490.987L586.56 143.04c-3.2-4.16-8.213-6.507-13.44-6.507h-82.453c-7.147 0-11.094 8.214-6.72 13.76L767.04 512 483.947 873.707c-4.374 5.546-0.427 13.76 6.72 13.76h82.453c5.227 0 10.24-2.454 13.44-6.507l272.32-347.84c9.707-12.48 9.707-29.76 0-42.133z" p-id="12355"></path></svg>