<?xml version="1.0" standalone="no"?><!DOCTYPE svg PUBLIC "-//W3C//DTD SVG 1.1//EN" "http://www.w3.org/Graphics/SVG/1.1/DTD/svg11.dtd"><svg t="1605623091799" class="icon" viewBox="0 0 1024 1024" version="1.1" xmlns="http://www.w3.org/2000/svg" p-id="12532" xmlns:xlink="http://www.w3.org/1999/xlink" width="200" height="200"><defs><style type="text/css"></style></defs><path d="M256.96 512l283.093-361.707c4.374-5.546 0.427-13.76-6.72-13.76H450.88c-5.227 0-10.24 2.454-13.44 6.507L165.12 490.987c-9.707 12.373-9.707 29.76 0 42.133l272.32 347.84c3.2 4.16 8.213 6.507 13.44 6.507h82.453c7.147 0 11.094-8.214 6.72-13.76L256.96 512z" p-id="12533"></path><path d="M581.227 512L864.32 150.293c4.373-5.546 0.427-13.76-6.72-13.76h-82.453c-5.227 0-10.24 2.454-13.44 6.507l-272.32 347.947c-9.707 12.373-9.707 29.76 0 42.133l272.32 347.84c3.2 4.16 8.213 6.507 13.44 6.507H857.6c7.147 0 11.093-8.214 6.72-13.76L581.227 512z" p-id="12534"></path></svg>