<?xml version="1.0" standalone="no"?><!DOCTYPE svg PUBLIC "-//W3C//DTD SVG 1.1//EN" "http://www.w3.org/Graphics/SVG/1.1/DTD/svg11.dtd"><svg t="1608170564057" class="icon" viewBox="0 0 1024 1024" version="1.1" xmlns="http://www.w3.org/2000/svg" p-id="11410" xmlns:xlink="http://www.w3.org/1999/xlink" width="200" height="200"><defs><style type="text/css"></style></defs><path d="M512 981.333333C253.866667 981.333333 42.666667 770.133333 42.666667 512S253.866667 42.666667 512 42.666667s469.333333 211.2 469.333333 469.333333-211.2 469.333333-469.333333 469.333333z m0-844.8c-206.506667 0-375.466667 168.96-375.466667 375.466667 0 206.506667 168.96 375.466667 375.466667 375.466667 206.506667 0 375.466667-168.96 375.466667-375.466667 0-206.506667-168.96-375.466667-375.466667-375.466667z" p-id="11411"></path><path d="M512 796.714667a46.08 46.08 0 0 1-46.933333-46.933334v-269.056c0-26.624 20.352-46.933333 46.933333-46.933333 26.581333 0 46.933333 20.309333 46.933333 46.933333v269.056c0 26.624-20.352 46.933333-46.933333 46.933334zM512 364.928a46.08 46.08 0 0 1-46.933333-46.933333V274.218667c0-26.624 20.352-46.933333 46.933333-46.933334 26.581333 0 46.933333 20.309333 46.933333 46.933334v43.776c0 26.624-21.888 46.933333-46.933333 46.933333z" p-id="11412"></path></svg>