<?xml version="1.0" standalone="no"?><!DOCTYPE svg PUBLIC "-//W3C//DTD SVG 1.1//EN" "http://www.w3.org/Graphics/SVG/1.1/DTD/svg11.dtd"><svg t="1608543804138" class="icon" viewBox="0 0 1024 1024" version="1.1" xmlns="http://www.w3.org/2000/svg" p-id="21528" xmlns:xlink="http://www.w3.org/1999/xlink" width="200" height="200"><defs><style type="text/css"></style></defs><path d="M500.736 743.0144a51.2 51.2 0 1 1-102.4-0.0512 51.2 51.2 0 0 1 102.4 0M295.936 256a51.2 51.2 0 0 1 51.2-51.2h292.352c42.752 0 77.4144 34.6624 77.4144 77.4144V409.6c0 56.32-46.08 102.4-102.4 102.4h-76.288a26.112 26.112 0 0 0-26.112 26.0608v51.3536a51.2 51.2 0 1 1-102.4 0V500.6336C409.7024 450.3552 450.4576 409.6 500.736 409.6h51.2a51.2 51.2 0 0 0 0-102.4h-204.8a51.2 51.2 0 0 1-51.2-51.2m574.5664 665.6h-716.8a51.2 51.2 0 0 1-51.2-51.2V153.6a51.2 51.2 0 0 1 51.2-51.2h716.8a51.2 51.2 0 0 1 51.2 51.2v716.8a51.2 51.2 0 0 1-51.2 51.2m-870.4-819.2v819.2a102.4 102.4 0 0 0 102.4 102.4h819.2a102.4 102.4 0 0 0 102.4-102.4V102.4a102.4 102.4 0 0 0-102.4-102.4h-819.2a102.4 102.4 0 0 0-102.4 102.4" p-id="21529"></path></svg>