<?xml version="1.0" standalone="no"?><!DOCTYPE svg PUBLIC "-//W3C//DTD SVG 1.1//EN" "http://www.w3.org/Graphics/SVG/1.1/DTD/svg11.dtd"><svg t="1603628655757" class="icon" viewBox="0 0 1024 1024" version="1.1" xmlns="http://www.w3.org/2000/svg" p-id="11502" xmlns:xlink="http://www.w3.org/1999/xlink" width="200" height="200"><defs><style type="text/css"></style></defs><path d="M512 298.666667c-117.76 0-213.333333 95.573333-213.333333 213.333333s95.573333 213.333333 213.333333 213.333333 213.333333-95.573333 213.333333-213.333333-95.573333-213.333333-213.333333-213.333333z m0-213.333334C276.48 85.333333 85.333333 276.48 85.333333 512s191.146667 426.666667 426.666667 426.666667 426.666667-191.146667 426.666667-426.666667S747.52 85.333333 512 85.333333z m0 768c-188.586667 0-341.333333-152.746667-341.333333-341.333333s152.746667-341.333333 341.333333-341.333333 341.333333 152.746667 341.333333 341.333333-152.746667 341.333333-341.333333 341.333333z" p-id="11503"></path></svg>